<?xml version="1.0" encoding="UTF-8" standalone="no"?>
<!-- Created with Inkscape (http://www.inkscape.org/) -->

<svg
   width="210mm"
   height="140mm"
   viewBox="0 0 210 140"
   version="1.1"
   id="svg1"
   xmlns="http://www.w3.org/2000/svg"
   xmlns:svg="http://www.w3.org/2000/svg">
  <defs
     id="defs1" />
  <g
     id="layer1">
    <path
       id="rect3"
       style="fill:#000000;stroke-width:0.264583"
       d="m 104.09389,80.656682 c -2.54677,0 -4.631943,1.848122 -5.030853,4.278618 A 50.063601,49.326555 0 0 0 78.754609,80.657276 50.063601,49.326555 0 0 0 28.690825,129.98342 50.063601,49.326555 0 0 0 78.754609,179.31015 50.063601,49.326555 0 0 0 126.19538,145.69524 V 174.196 c 0,2.83337 2.28126,5.11415 5.11463,5.11415 h 12.42011 c 2.83335,0 5.11463,-2.28078 5.11463,-5.11415 v -66.85214 c 0,-1.64668 -0.77348,-3.1032 -1.97509,-4.03752 h 24.07659 c 2.83336,0 5.11463,-2.2808 5.11463,-5.114153 v -12.42076 c 0,-2.833358 -2.28127,-5.114745 -5.11463,-5.114745 z m 3.02562,2.995924 h 2.76344 v 7.830969 a 50.063601,49.326555 0 0 0 -7.3296,-4.754284 c 0.39685,-1.753717 2.27944,-3.076685 4.56616,-3.076685 z m 9.22151,0 h 41.94162 v 16.658404 h -39.6947 a 50.063601,49.326555 0 0 0 -2.24692,-2.874781 z m 48.39909,0 h 3.18052 c 2.57688,0 4.65114,1.677491 4.65114,3.761383 v 9.135043 c 0,2.083891 -2.07426,3.761978 -4.65114,3.761978 h -3.18052 z m -43.08316,2.924069 c -1.40816,0 -2.54164,1.13348 -2.54164,2.541635 v 5.7264 c 0,1.408156 1.13348,2.541636 2.54164,2.541636 h 31.72684 c 1.40813,0 2.54164,-1.13348 2.54164,-2.541636 v -5.7264 c 0,-1.408155 -1.13351,-2.541635 -2.54164,-2.541635 z m 2.18424,3.037492 h 27.35776 c 0.57899,0 1.0451,0.466149 1.0451,1.045158 v 2.644964 c 0,0.578997 -0.46611,1.045159 -1.0451,1.045159 h -27.35776 c -0.579,0 -1.04511,-0.466162 -1.04511,-1.045159 v -2.644964 c 0,-0.579009 0.46611,-1.045158 1.04511,-1.045158 z M 61.940714,89.714526 A 11.747739,11.574787 0 0 1 73.688201,101.28966 11.747739,11.574787 0 0 1 61.940714,112.86419 11.747739,11.574787 0 0 1 50.192625,101.28966 11.747739,11.574787 0 0 1 61.940714,89.714526 Z m 34.187108,0.01306 a 11.747739,11.574787 0 0 1 9.614488,5.774501 11.747739,11.574787 0 0 1 -4.29976,15.811593 11.747739,11.574787 0 0 1 -16.047847,-4.23705 11.747739,11.574787 0 0 1 4.300359,-15.810998 11.747739,11.574787 0 0 1 6.43276,-1.538046 z m 24.735958,13.578754 h 7.3067 c -1.20162,0.93432 -1.9751,2.39084 -1.9751,4.03752 v 7.17121 a 50.063601,49.326555 0 0 0 -5.3316,-11.20873 z m 12.08862,2.41158 h 9.13533 c 2.0839,0 3.76154,2.07467 3.76154,4.65155 v 2.76314 h -16.6584 v -2.76314 c 0,-2.57688 1.67769,-4.65155 3.76153,-4.65155 z m -88.384899,12.70402 a 11.747739,11.574787 0 0 1 6.43276,1.53746 11.747739,11.574787 0 0 1 4.299757,15.81158 11.747739,11.574787 0 0 1 -16.047846,4.23646 11.747739,11.574787 0 0 1 -4.299758,-15.81099 11.747739,11.574787 0 0 1 9.615087,-5.77451 z m 67.256179,0 a 11.747739,11.574787 0 0 1 6.43276,1.53746 11.747739,11.574787 0 0 1 4.30036,15.81158 11.747739,11.574787 0 0 1 -16.04784,4.23646 11.747739,11.574787 0 0 1 -4.29976,-15.81099 11.747739,11.574787 0 0 1 9.61448,-5.77451 z m 17.36719,1.16868 h 16.6584 v 41.94174 h -16.6584 z m 5.46601,2.77442 c -1.40816,0 -2.54164,1.13348 -2.54164,2.54164 v 31.7265 c 0,1.40816 1.13348,2.54164 2.54164,2.54164 h 5.72638 c 1.40813,0 2.54164,-1.13348 2.54164,-2.54164 v -31.7265 c 0,-1.40816 -1.13351,-2.54164 -2.54164,-2.54164 z m -55.902271,2.58083 a 5.1128783,5.0376055 0 0 1 5.112818,5.03755 5.1128783,5.0376055 0 0 1 -5.112818,5.03814 5.1128783,5.0376055 0 0 1 -5.112817,-5.03814 5.1128783,5.0376055 0 0 1 5.112817,-5.03755 z m 57.442801,1.10039 h 2.64531 c 0.579,0 1.04511,0.46615 1.04511,1.04516 v 27.35762 c 0,0.579 -0.46611,1.04516 -1.04511,1.04516 h -2.64531 c -0.579,0 -1.0451,-0.46616 -1.0451,-1.04516 v -27.35762 c 0,-0.57901 0.4661,-1.04516 1.0451,-1.04516 z M 95.568504,147.10323 A 11.747739,11.574787 0 0 1 107.31659,158.67777 11.747739,11.574787 0 0 1 95.568504,170.2529 11.747739,11.574787 0 0 1 83.821018,158.67777 11.747739,11.574787 0 0 1 95.568504,147.10323 Z m -33.069075,0.0131 a 11.747739,11.574787 0 0 1 9.615087,5.77391 11.747739,11.574787 0 0 1 -4.30036,15.81158 11.747739,11.574787 0 0 1 -16.047846,-4.23645 11.747739,11.574787 0 0 1 4.30036,-15.81159 11.747739,11.574787 0 0 1 6.432759,-1.53745 z m 66.691441,20.87348 h 16.6584 v 3.18061 c 0,2.57684 -1.67764,4.65155 -3.76154,4.65155 h -9.13533 c -2.08384,0 -3.76153,-2.07471 -3.76153,-4.65155 z M 23.744959,187.74803 c -1.485084,0 -2.782126,0.3183 -3.891117,0.95489 -1.108992,0.6271 -1.972079,1.51548 -2.589257,2.66516 -0.607534,1.14017 -0.911303,2.47987 -0.911303,4.01911 v 5.87189 c 0,1.52973 0.303769,2.86943 0.911303,4.01911 0.617178,1.14967 1.480265,2.04281 2.589257,2.6794 1.108991,0.6271 2.406033,0.94065 3.891117,0.94065 1.485084,0 2.782126,-0.31355 3.891118,-0.94065 1.108991,-0.63659 1.967257,-1.52973 2.574791,-2.6794 0.617178,-1.14968 0.925768,-2.48938 0.925768,-4.01911 v -5.87189 c 0,-1.53924 -0.30859,-2.87894 -0.925768,-4.01911 -0.607534,-1.14968 -1.4658,-2.03806 -2.574791,-2.66516 -1.108992,-0.63659 -2.406034,-0.95489 -3.891118,-0.95489 z m 82.292071,0.21378 v 2.76492 h 5.94517 v 17.95772 h 2.95088 v -17.95772 h 5.94517 v -2.76492 z m 58.87305,0 v 20.72264 h 2.95088 v -4.23586 l 2.64591,-2.93535 4.3986,7.17121 h 3.21126 l -5.76555,-9.21699 5.02783,-5.57675 h -3.47163 l -6.04642,7.18487 v -13.11377 z m -141.165121,2.6509 c 1.321147,0 2.377103,0.42757 3.167862,1.2827 0.800402,0.84562 1.200605,1.9763 1.200605,3.39201 v 6.07142 c 0,1.40621 -0.400203,2.53689 -1.200605,3.39202 -0.790759,0.85513 -1.846715,1.28269 -3.167862,1.28269 -1.311503,0 -2.367459,-0.42756 -3.167861,-1.28269 -0.800403,-0.85513 -1.200605,-1.98581 -1.200605,-3.39202 v -6.07142 c 0,-1.41571 0.400202,-2.54639 1.200605,-3.39201 0.800402,-0.85513 1.856358,-1.2827 3.167861,-1.2827 z m 17.763169,3.06422 c -2.005828,0 -3.563243,0.60334 -4.672234,1.81002 -1.099348,1.20668 -1.649024,2.9122 -1.649024,5.11653 v 1.6675 c 0,2.11882 0.573784,3.75307 1.721349,4.90274 1.147566,1.14968 2.767662,1.72452 4.860281,1.72452 0.93541,0 1.866002,-0.19003 2.791768,-0.57009 0.925767,-0.38956 1.759924,-0.93589 2.502466,-1.639 l -1.938326,-1.90979 c -0.462883,0.42757 -0.98845,0.76012 -1.576698,0.99765 -0.588248,0.23754 -1.181319,0.35631 -1.77921,0.35631 -1.195782,0 -2.126373,-0.3278 -2.791768,-0.9834 -0.631466,-0.63132 -0.951201,-1.5337 -0.974588,-2.69366 h 9.451149 v -0.96915 c 0,-2.47037 -0.520746,-4.38967 -1.562233,-5.75787 -1.031845,-1.36821 -2.492825,-2.05231 -4.382932,-2.05231 z m 47.358806,0 c -0.887193,0 -1.702063,0.24703 -2.444605,0.74111 -0.580745,0.3915 -1.070292,0.90732 -1.475442,1.53745 v -2.06478 h -2.950885 v 14.79374 h 2.950885 v -9.36367 c 0,-0.90263 0.25555,-1.60574 0.766651,-2.10932 0.520744,-0.51307 1.248823,-0.76961 2.184233,-0.76961 0.520744,0 0.978807,0.0808 1.374187,0.24228 0.395379,0.16153 0.723256,0.39906 0.983628,0.71261 l 1.923861,-2.56539 c -0.414666,-0.38006 -0.90166,-0.6651 -1.460977,-0.85513 -0.549674,-0.19953 -1.166854,-0.29929 -1.851536,-0.29929 z m 11.369586,0 c -2.005829,0 -3.563243,0.60334 -4.672235,1.81002 -1.099348,1.20668 -1.649023,2.9122 -1.649023,5.11653 v 1.6675 c 0,2.11882 0.573784,3.75307 1.721349,4.90274 1.147565,1.14968 2.767662,1.72452 4.860279,1.72452 0.93541,0 1.866,-0.19003 2.79177,-0.57009 0.92577,-0.38956 1.75992,-0.93589 2.50247,-1.639 l -1.93833,-1.90979 c -0.46288,0.42757 -0.98845,0.76012 -1.5767,0.99765 -0.58825,0.23754 -1.18132,0.35631 -1.77921,0.35631 -1.19578,0 -2.126372,-0.3278 -2.791767,-0.9834 -0.631465,-0.63132 -0.9512,-1.5337 -0.974587,-2.69366 h 9.451144 v -0.96915 c 0,-2.47037 -0.52074,-4.38967 -1.56223,-5.75787 -1.03184,-1.36821 -2.49282,-2.05231 -4.38293,-2.05231 z m 28.38057,0 c -0.8872,0 -1.70207,0.24703 -2.44461,0.74111 -0.58074,0.3915 -1.07029,0.90732 -1.47544,1.53745 v -2.06478 h -2.95089 v 14.79374 h 2.95089 v -9.36367 c 0,-0.90263 0.25555,-1.60574 0.76665,-2.10932 0.52074,-0.51307 1.24882,-0.76961 2.18423,-0.76961 0.52075,0 0.97881,0.0808 1.37419,0.24228 0.39538,0.16153 0.72326,0.39906 0.98363,0.71261 l 1.92386,-2.56539 c -0.41467,-0.38006 -0.90166,-0.6651 -1.46098,-0.85513 -0.54967,-0.19953 -1.16685,-0.29929 -1.85153,-0.29929 z m 11.13814,0 c -1.13792,0 -2.17459,0.19003 -3.11,0.57008 -0.92577,0.37056 -1.67313,0.89314 -2.24209,1.56774 l 2.1553,1.45372 c 0.45324,-0.33255 0.96434,-0.58434 1.5333,-0.75536 0.57861,-0.18053 1.16203,-0.27079 1.75028,-0.27079 0.96434,0 1.70689,0.27079 2.22763,0.81237 0.53039,0.53208 0.79558,1.28269 0.79558,2.25184 v 0.6271 h -4.13702 c -1.6876,0 -2.95571,0.3658 -3.80433,1.09741 -0.83898,0.72211 -1.25847,1.81953 -1.25847,3.29225 0,1.54874 0.45807,2.69841 1.37419,3.44903 0.92577,0.75061 2.3096,1.12592 4.15149,1.12592 0.62682,0 1.18614,-0.0665 1.67795,-0.19953 0.50146,-0.12352 0.94506,-0.31355 1.3308,-0.57009 0.25188,-0.16752 0.46696,-0.37684 0.66539,-0.60512 v 1.16095 h 2.80623 v -9.50619 c 0,-1.74826 -0.51592,-3.10222 -1.54776,-4.06186 -1.03185,-0.95965 -2.48801,-1.43947 -4.36847,-1.43947 z m 16.46131,0 c -2.06369,0 -3.6645,0.55583 -4.80242,1.6675 -1.12828,1.10217 -1.69242,2.66516 -1.69242,4.68896 v 2.43712 c 0,2.04281 0.56414,3.6248 1.69242,4.74597 1.13792,1.12117 2.73873,1.68176 4.80242,1.68176 1.16685,0 2.22281,-0.19953 3.16786,-0.59859 0.9547,-0.40857 1.71171,-0.9834 2.27102,-1.72452 l -2.12637,-2.0238 c -0.41467,0.50357 -0.90648,0.89313 -1.47544,1.16867 -0.56896,0.27555 -1.16686,0.41332 -1.79368,0.41332 -1.13792,0 -2.02029,-0.3183 -2.64711,-0.9549 -0.62683,-0.63659 -0.94024,-1.53923 -0.94024,-2.70791 v -2.43712 c 0,-1.14017 0.31341,-2.02381 0.94024,-2.6509 0.62682,-0.6271 1.50919,-0.94064 2.64711,-0.94064 0.62682,0 1.22472,0.12827 1.79368,0.3848 0.56896,0.25654 1.06077,0.62235 1.47544,1.09742 l 2.12637,-1.88128 c -0.55931,-0.76012 -1.3115,-1.34446 -2.25656,-1.75302 -0.94505,-0.40856 -2.00583,-0.61284 -3.18232,-0.61284 z m -105.074641,0.21378 v 8.99311 c 0,1.90979 0.448419,3.39202 1.345256,4.44668 0.90648,1.04516 2.189056,1.56774 3.847722,1.56774 1.089705,0 1.972079,-0.26129 2.647117,-0.78387 0.552362,-0.43539 0.933896,-0.9269 1.21507,-1.45135 v 2.02143 h 2.93642 v -14.79374 h -2.93642 v 9.33517 c 0,0.92163 -0.265194,1.639 -0.795581,2.15207 -0.520744,0.50358 -1.26811,0.75537 -2.242094,0.75537 -0.973984,0 -1.730993,-0.2803 -2.271024,-0.84088 -0.530387,-0.57009 -0.795582,-1.37296 -0.795582,-2.40862 v -8.99311 z m 14.450656,0 5.641397,14.79374 h 2.227628 l 5.641398,-14.79374 h -3.081071 l -3.674141,10.56085 -3.674141,-10.56085 z m -24.084427,2.40861 c 0.916123,0 1.644203,0.33731 2.184233,1.01191 0.549674,0.6746 0.867908,1.61049 0.954698,2.80767 h -6.633463 c 0.04937,-1.15702 0.34221,-2.07762 0.905275,-2.73641 0.617178,-0.72211 1.480265,-1.08317 2.589257,-1.08317 z m 58.728392,0 c 0.91612,0 1.6442,0.33731 2.18423,1.01191 0.54968,0.6746 0.86791,1.61049 0.9547,2.80767 h -6.633463 c 0.04937,-1.15702 0.342211,-2.07762 0.905276,-2.73641 0.617178,-0.72211 1.480265,-1.08317 2.589257,-1.08317 z m 38.50615,5.97166 h 4.12256 v 2.79342 c 0,0.50358 -0.27966,0.87414 -0.83898,1.11167 -0.55931,0.23754 -1.39829,0.35631 -2.51693,0.35631 -1.0222,0 -1.78885,-0.18053 -2.29995,-0.54158 -0.5111,-0.36106 -0.76665,-0.91689 -0.76665,-1.66751 0,-0.6936 0.19287,-1.20668 0.5786,-1.53923 0.38574,-0.34205 0.95952,-0.51308 1.72135,-0.51308 z"
       transform="matrix(0.85739647,0,0,0.87020784,21.396746,-56.193066)" />
  </g>
</svg>
