<?xml version="1.0" encoding="UTF-8" standalone="no"?>
<!-- Created with Inkscape (http://www.inkscape.org/) -->

<svg
   width="130mm"
   height="130mm"
   viewBox="0 0 130 130"
   version="1.1"
   id="svg1"
   xmlns="http://www.w3.org/2000/svg"
   xmlns:svg="http://www.w3.org/2000/svg">
  <defs
     id="defs1" />
  <g
     id="layer1">
    <path
       id="rect3"
       style="fill:#000000;stroke-width:0.264583"
       d="m 78.754747,80.656887 a 50.0636,49.326556 0 0 0 -50.063862,49.326893 50.0636,49.326556 0 0 0 50.063862,49.32631 50.0636,49.326556 0 0 0 47.440833,-33.85973 v 28.74575 c 0,2.83335 2.28081,5.11456 5.11418,5.11456 h 12.42057 c 2.83333,0 5.11417,-2.28121 5.11417,-5.11456 v -66.85223 c 0,-1.64657 -0.77336,-3.10302 -1.97474,-4.03729 h 24.07621 c 2.83334,0 5.11476,-2.28121 5.11476,-5.114562 V 85.771447 c 0,-2.833362 -2.28142,-5.11456 -5.11476,-5.11456 h -66.85186 c -2.53988,0 -4.621581,1.837555 -5.028597,4.258287 A 50.0636,49.326556 0 0 0 78.754747,80.656887 Z m 28.365083,2.995803 h 2.76313 v 7.715116 a 50.0636,49.326556 0 0 0 -7.30288,-4.76028 c 0.45506,-1.692802 2.30625,-2.954836 4.53975,-2.954836 z m 9.22135,0 h 41.94096 v 16.6581 h -39.54535 a 50.0636,49.326556 0 0 0 -2.39561,-2.890793 z m 48.39919,0 h 3.17988 c 2.57689,0 4.6517,1.677593 4.6517,3.761487 v 9.135122 c 0,2.083874 -2.07481,3.761491 -4.6517,3.761491 h -3.17988 z M 121.657,86.576944 c -1.40816,0 -2.54156,1.133565 -2.54156,2.541702 v 5.726184 c 0,1.408147 1.1334,2.541701 2.54156,2.541701 h 31.72667 c 1.40816,0 2.54156,-1.133554 2.54156,-2.541701 v -5.726184 c 0,-1.408137 -1.1334,-2.541702 -2.54156,-2.541702 z m 2.18459,3.036771 h 27.35749 c 0.579,0 1.04511,0.466532 1.04511,1.04553 v 2.644985 c 0,0.579 -0.46611,1.044954 -1.04511,1.044954 h -27.35749 c -0.579,0 -1.04511,-0.465954 -1.04511,-1.044954 v -2.644985 c 0,-0.578998 0.46611,-1.04553 1.04511,-1.04553 z M 61.940379,89.71469 a 11.747739,11.574787 0 0 1 11.747666,11.57469 11.747739,11.574787 0 0 1 -11.747666,11.5747 11.747739,11.574787 0 0 1 -11.747666,-11.5747 11.747739,11.574787 0 0 1 11.747666,-11.57469 z m 34.187338,0.01327 a 11.747739,11.574787 0 0 1 9.614663,5.774076 11.747739,11.574787 0 0 1 -4.30002,15.811634 11.747739,11.574787 0 0 1 -16.047679,-4.23694 11.747739,11.574787 0 0 1 4.300014,-15.811055 11.747739,11.574787 0 0 1 6.433022,-1.537715 z m 24.720393,13.57863 h 7.32221 c -1.20136,0.93427 -1.97474,2.39072 -1.97474,4.03729 v 6.92924 a 50.0636,49.326556 0 0 0 -5.34747,-10.96653 z m 12.10463,2.4113 h 9.13519 c 2.08388,0 3.76134,2.07491 3.76134,4.6518 v 2.76327 h -16.65845 v -2.76327 c 0,-2.57689 1.67805,-4.6518 3.76192,-4.6518 z m -88.385331,12.70389 a 11.747739,11.574787 0 0 1 6.433022,1.53771 11.747739,11.574787 0 0 1 4.299428,15.81163 11.747739,11.574787 0 0 1 -16.04768,4.23636 11.747739,11.574787 0 0 1 -4.300014,-15.81105 11.747739,11.574787 0 0 1 9.615244,-5.77465 z m 67.256301,0 a 11.747739,11.574787 0 0 1 6.43302,1.53771 11.747739,11.574787 0 0 1 4.30001,15.81163 11.747739,11.574787 0 0 1 -16.04768,4.23636 11.747739,11.574787 0 0 1 -4.30001,-15.81105 11.747739,11.574787 0 0 1 9.61466,-5.77465 z m 17.36711,1.16901 h 16.65845 v 41.94124 h -16.65845 z m 5.46587,2.77423 c -1.40816,0 -2.54156,1.13354 -2.54156,2.5417 v 31.72655 c 0,1.40816 1.1334,2.5417 2.54156,2.5417 h 5.72671 c 1.40813,0 2.54155,-1.13354 2.54155,-2.5417 v -31.72655 c 0,-1.40816 -1.13342,-2.5417 -2.54155,-2.5417 z m -55.901943,2.58094 a 5.1128782,5.0376056 0 0 1 5.112421,5.03782 5.1128782,5.0376056 0 0 1 -5.112421,5.03724 5.1128782,5.0376056 0 0 1 -5.113008,-5.03724 5.1128782,5.0376056 0 0 1 5.113008,-5.03782 z m 57.442933,1.10034 h 2.64472 c 0.579,0 1.04511,0.46596 1.04511,1.04496 v 27.35747 c 0,0.579 -0.46611,1.04553 -1.04511,1.04553 h -2.64472 c -0.579,0 -1.04511,-0.46653 -1.04511,-1.04553 v -27.35747 c 0,-0.579 0.46611,-1.04496 1.04511,-1.04496 z M 95.568528,147.1029 A 11.747739,11.574787 0 0 1 107.31619,158.67759 11.747739,11.574787 0 0 1 95.568528,170.25286 11.747739,11.574787 0 0 1 83.820862,158.67759 11.747739,11.574787 0 0 1 95.568528,147.1029 Z m -33.068959,0.0133 a 11.747739,11.574787 0 0 1 9.614657,5.77408 11.747739,11.574787 0 0 1 -4.300014,15.81163 11.747739,11.574787 0 0 1 -16.04768,-4.23636 11.747739,11.574787 0 0 1 4.300014,-15.81164 11.747739,11.574787 0 0 1 6.433023,-1.53771 z m 66.691251,20.87368 h 16.65845 v 3.18045 c 0,2.57686 -1.67746,4.65123 -3.76134,4.65123 h -9.13519 c -2.08387,0 -3.76192,-2.07437 -3.76192,-4.65123 z"
       transform="matrix(0.88162111,0,0,0.89559971,-25.175634,-52.260759)" />
  </g>
</svg>
